<svg width="350" height="350" viewBox="0 0 350 350" fill="none" xmlns="http://www.w3.org/2000/svg">
<rect width="350" height="350" rx="32" fill="#6B7EA7"/>
<g clip-path="url(#clip0_487_676)">
<g filter="url(#filter0_g_487_676)">
<path d="M275.507 165.807H73.8115V336.777H275.507V165.807Z" fill="white"/>
</g>
<g filter="url(#filter1_g_487_676)">
<path d="M270.03 170.45H79.2891V332.134H270.03V170.45Z" fill="url(#paint0_linear_487_676)"/>
</g>
<g filter="url(#filter2_f_487_676)">
<mask id="mask0_487_676" style="mask-type:luminance" maskUnits="userSpaceOnUse" x="158" y="185" width="42" height="67">
<path d="M199.456 185.667H158.446V251.292H199.456V185.667Z" fill="white"/>
</mask>
<g mask="url(#mask0_487_676)">
<path d="M165.607 185.667L158.446 189.896L174.983 219.191L182.142 214.963L165.607 185.667Z" fill="#2B2B2B" fill-opacity="0.49"/>
<path d="M192.282 185.667L199.443 189.896L182.907 219.191L175.746 214.963L192.282 185.667Z" fill="#2B2B2B" fill-opacity="0.49"/>
<path d="M184.112 214.916H173.776C171.95 214.916 170.469 216.43 170.469 218.298V220.944C170.469 222.812 171.95 224.326 173.776 224.326H184.112C185.939 224.326 187.419 222.812 187.419 220.944V218.298C187.419 216.43 185.939 214.916 184.112 214.916Z" fill="#2B2B2B" fill-opacity="0.49"/>
<path d="M178.944 251.191C188.077 251.191 195.481 243.618 195.481 234.277C195.481 224.936 188.077 217.364 178.944 217.364C169.812 217.364 162.408 224.936 162.408 234.277C162.408 243.618 169.812 251.191 178.944 251.191Z" fill="#2B2B2B" fill-opacity="0.49"/>
<path d="M178.944 247.131C185.885 247.131 191.511 241.376 191.511 234.277C191.511 227.178 185.885 221.423 178.944 221.423C172.003 221.423 166.377 227.178 166.377 234.277C166.377 241.376 172.003 247.131 178.944 247.131Z" fill="#2B2B2B" fill-opacity="0.49"/>
</g>
</g>
<mask id="mask1_487_676" style="mask-type:luminance" maskUnits="userSpaceOnUse" x="149" y="172" width="51" height="80">
<path d="M199.456 172.352H149.863V251.292H199.456V172.352Z" fill="white"/>
</mask>
<g mask="url(#mask1_487_676)">
<path d="M158.522 172.352L149.863 177.438L169.861 212.678L178.519 207.591L158.522 172.352Z" fill="url(#paint1_linear_487_676)"/>
<path d="M190.781 172.352L199.44 177.438L179.443 212.678L170.784 207.591L190.781 172.352Z" fill="url(#paint2_linear_487_676)"/>
<path d="M180.902 207.535H168.402C166.193 207.535 164.402 209.356 164.402 211.604V214.786C164.402 217.033 166.193 218.855 168.402 218.855H180.902C183.11 218.855 184.901 217.033 184.901 214.786V211.604C184.901 209.356 183.11 207.535 180.902 207.535Z" fill="#654A0D"/>
<path d="M174.651 251.17C185.696 251.17 194.648 242.061 194.648 230.825C194.648 219.588 185.696 210.479 174.651 210.479C163.607 210.479 154.654 219.588 154.654 230.825C154.654 242.061 163.607 251.17 174.651 251.17Z" fill="url(#paint3_radial_487_676)"/>
<path d="M174.651 246.287C183.045 246.287 189.85 239.365 189.85 230.825C189.85 222.285 183.045 215.362 174.651 215.362C166.258 215.362 159.454 222.285 159.454 230.825C159.454 239.365 166.258 246.287 174.651 246.287Z" fill="url(#paint4_radial_487_676)"/>
</g>
<g filter="url(#filter3_g_487_676)">
<path d="M150.432 262.676H201.52" stroke="#252525" stroke-width="5" stroke-linecap="round"/>
</g>
<g filter="url(#filter4_g_487_676)">
<path d="M146.542 308.151H165.025" stroke="#252525" stroke-width="5" stroke-linecap="round"/>
</g>
<g filter="url(#filter5_g_487_676)">
<path d="M173.153 308.151H205.409" stroke="#252525" stroke-width="5" stroke-linecap="round"/>
</g>
<g filter="url(#filter6_g_487_676)">
<path d="M133.725 276.545H215.593" stroke="#252525" stroke-width="5" stroke-linecap="round"/>
</g>
<g filter="url(#filter7_gn_487_676)">
<path d="M275.507 165.807H73.8115V336.777H275.507V165.807Z" fill="#FFDF99" fill-opacity="0.2"/>
</g>
</g>
<defs>
<filter id="filter0_g_487_676" x="71.9115" y="163.907" width="205.495" height="174.77" filterUnits="userSpaceOnUse" color-interpolation-filters="sRGB">
<feFlood flood-opacity="0" result="BackgroundImageFix"/>
<feBlend mode="normal" in="SourceGraphic" in2="BackgroundImageFix" result="shape"/>
<feTurbulence type="fractalNoise" baseFrequency="0.38461539149284363 0.38461539149284363" numOctaves="3" seed="2226" />
<feDisplacementMap in="shape" scale="3.7999999523162842" xChannelSelector="R" yChannelSelector="G" result="displacedImage" width="100%" height="100%" />
<feMerge result="effect1_texture_487_676">
<feMergeNode in="displacedImage"/>
</feMerge>
</filter>
<filter id="filter1_g_487_676" x="77.3891" y="168.55" width="194.541" height="165.485" filterUnits="userSpaceOnUse" color-interpolation-filters="sRGB">
<feFlood flood-opacity="0" result="BackgroundImageFix"/>
<feBlend mode="normal" in="SourceGraphic" in2="BackgroundImageFix" result="shape"/>
<feTurbulence type="fractalNoise" baseFrequency="0.38461539149284363 0.38461539149284363" numOctaves="3" seed="2226" />
<feDisplacementMap in="shape" scale="3.7999999523162842" xChannelSelector="R" yChannelSelector="G" result="displacedImage" width="100%" height="100%" />
<feMerge result="effect1_texture_487_676">
<feMergeNode in="displacedImage"/>
</feMerge>
</filter>
<filter id="filter2_f_487_676" x="149.046" y="176.267" width="59.7961" height="84.3237" filterUnits="userSpaceOnUse" color-interpolation-filters="sRGB">
<feFlood flood-opacity="0" result="BackgroundImageFix"/>
<feBlend mode="normal" in="SourceGraphic" in2="BackgroundImageFix" result="shape"/>
<feGaussianBlur stdDeviation="4.7" result="effect1_foregroundBlur_487_676"/>
</filter>
<filter id="filter3_g_487_676" x="147.132" y="259.376" width="57.6889" height="6.6" filterUnits="userSpaceOnUse" color-interpolation-filters="sRGB">
<feFlood flood-opacity="0" result="BackgroundImageFix"/>
<feBlend mode="normal" in="SourceGraphic" in2="BackgroundImageFix" result="shape"/>
<feTurbulence type="fractalNoise" baseFrequency="0.52631580829620361 0.52631580829620361" numOctaves="3" seed="1621" />
<feDisplacementMap in="shape" scale="1.6000000238418579" xChannelSelector="R" yChannelSelector="G" result="displacedImage" width="100%" height="100%" />
<feMerge result="effect1_texture_487_676">
<feMergeNode in="displacedImage"/>
</feMerge>
</filter>
<filter id="filter4_g_487_676" x="143.242" y="304.851" width="25.0834" height="6.6" filterUnits="userSpaceOnUse" color-interpolation-filters="sRGB">
<feFlood flood-opacity="0" result="BackgroundImageFix"/>
<feBlend mode="normal" in="SourceGraphic" in2="BackgroundImageFix" result="shape"/>
<feTurbulence type="fractalNoise" baseFrequency="0.52631580829620361 0.52631580829620361" numOctaves="3" seed="1621" />
<feDisplacementMap in="shape" scale="1.6000000238418579" xChannelSelector="R" yChannelSelector="G" result="displacedImage" width="100%" height="100%" />
<feMerge result="effect1_texture_487_676">
<feMergeNode in="displacedImage"/>
</feMerge>
</filter>
<filter id="filter5_g_487_676" x="169.853" y="304.851" width="38.8559" height="6.6" filterUnits="userSpaceOnUse" color-interpolation-filters="sRGB">
<feFlood flood-opacity="0" result="BackgroundImageFix"/>
<feBlend mode="normal" in="SourceGraphic" in2="BackgroundImageFix" result="shape"/>
<feTurbulence type="fractalNoise" baseFrequency="0.52631580829620361 0.52631580829620361" numOctaves="3" seed="1621" />
<feDisplacementMap in="shape" scale="1.6000000238418579" xChannelSelector="R" yChannelSelector="G" result="displacedImage" width="100%" height="100%" />
<feMerge result="effect1_texture_487_676">
<feMergeNode in="displacedImage"/>
</feMerge>
</filter>
<filter id="filter6_g_487_676" x="130.425" y="273.245" width="88.4682" height="6.6" filterUnits="userSpaceOnUse" color-interpolation-filters="sRGB">
<feFlood flood-opacity="0" result="BackgroundImageFix"/>
<feBlend mode="normal" in="SourceGraphic" in2="BackgroundImageFix" result="shape"/>
<feTurbulence type="fractalNoise" baseFrequency="0.52631580829620361 0.52631580829620361" numOctaves="3" seed="1621" />
<feDisplacementMap in="shape" scale="1.6000000238418579" xChannelSelector="R" yChannelSelector="G" result="displacedImage" width="100%" height="100%" />
<feMerge result="effect1_texture_487_676">
<feMergeNode in="displacedImage"/>
</feMerge>
</filter>
<filter id="filter7_gn_487_676" x="71.9115" y="163.907" width="205.495" height="174.77" filterUnits="userSpaceOnUse" color-interpolation-filters="sRGB">
<feFlood flood-opacity="0" result="BackgroundImageFix"/>
<feBlend mode="normal" in="SourceGraphic" in2="BackgroundImageFix" result="shape"/>
<feTurbulence type="fractalNoise" baseFrequency="0.38461539149284363 0.38461539149284363" numOctaves="3" seed="2226" />
<feDisplacementMap in="shape" scale="3.7999999523162842" xChannelSelector="R" yChannelSelector="G" result="displacedImage" width="100%" height="100%" />
<feMerge result="effect1_texture_487_676">
<feMergeNode in="displacedImage"/>
</feMerge>
<feTurbulence type="fractalNoise" baseFrequency="10 10" stitchTiles="stitch" numOctaves="3" result="noise" seed="5117" />
<feColorMatrix in="noise" type="luminanceToAlpha" result="alphaNoise" />
<feComponentTransfer in="alphaNoise" result="coloredNoise1">
<feFuncA type="discrete" tableValues="0 0 0 0 0 0 1 1 1 1 1 1 1 1 1 1 1 1 1 1 1 1 1 1 1 1 1 1 1 1 1 1 1 1 1 1 1 1 1 1 1 1 1 0 0 0 0 0 0 0 0 0 0 0 0 0 0 0 0 0 0 0 0 0 0 0 0 0 0 0 0 0 0 0 0 0 0 0 0 0 0 0 0 0 0 0 0 0 0 0 0 0 0 0 0 0 0 0 0 0 "/>
</feComponentTransfer>
<feComposite operator="in" in2="effect1_texture_487_676" in="coloredNoise1" result="noise1Clipped" />
<feFlood flood-color="#4A3A25" result="color1Flood" />
<feComposite operator="in" in2="noise1Clipped" in="color1Flood" result="color1" />
<feMerge result="effect2_noise_487_676">
<feMergeNode in="effect1_texture_487_676" />
<feMergeNode in="color1" />
</feMerge>
</filter>
<linearGradient id="paint0_linear_487_676" x1="79.2891" y1="170.45" x2="269.59" y2="332.65" gradientUnits="userSpaceOnUse">
<stop stop-color="#ECF6E1"/>
<stop offset="1" stop-color="#FFBD7C"/>
</linearGradient>
<linearGradient id="paint1_linear_487_676" x1="154.193" y1="174.895" x2="174.712" y2="209.828" gradientUnits="userSpaceOnUse">
<stop stop-color="white" stop-opacity="0"/>
<stop offset="1" stop-color="#20859C"/>
</linearGradient>
<linearGradient id="paint2_linear_487_676" x1="195.11" y1="174.895" x2="174.591" y2="209.828" gradientUnits="userSpaceOnUse">
<stop stop-color="white" stop-opacity="0"/>
<stop offset="1" stop-color="#96BAFF"/>
</linearGradient>
<radialGradient id="paint3_radial_487_676" cx="0" cy="0" r="1" gradientUnits="userSpaceOnUse" gradientTransform="translate(194.648 230.825) rotate(180) scale(39.994 40.6908)">
<stop stop-color="#C9980B"/>
<stop offset="1" stop-color="#76520F"/>
</radialGradient>
<radialGradient id="paint4_radial_487_676" cx="0" cy="0" r="1" gradientUnits="userSpaceOnUse" gradientTransform="translate(187.309 230.825) rotate(180) scale(27.8544 28.3397)">
<stop stop-color="#FFE169"/>
<stop offset="1" stop-color="#FFC300"/>
</radialGradient>
<clipPath id="clip0_487_676">
<rect width="206" height="175" fill="white" transform="translate(72 164)"/>
</clipPath>
</defs>
</svg>
