<svg width="358" height="358" viewBox="0 0 358 358" fill="none" xmlns="http://www.w3.org/2000/svg">
<g filter="url(#filter0_d_538_366)">
<rect x="4" width="350" height="350" rx="32" fill="#35B814"/>
<g clip-path="url(#clip0_538_366)">
<g filter="url(#filter1_g_538_366)">
<path d="M279.507 165.807H77.8115V336.777H279.507V165.807Z" fill="white"/>
</g>
<g filter="url(#filter2_g_538_366)">
<path d="M274.03 170.45H83.2891V332.134H274.03V170.45Z" fill="url(#paint0_linear_538_366)"/>
</g>
<g filter="url(#filter3_f_538_366)">
<mask id="mask0_538_366" style="mask-type:luminance" maskUnits="userSpaceOnUse" x="162" y="185" width="42" height="67">
<path d="M203.456 185.667H162.446V251.292H203.456V185.667Z" fill="white"/>
</mask>
<g mask="url(#mask0_538_366)">
<path d="M169.607 185.667L162.446 189.896L178.983 219.191L186.142 214.963L169.607 185.667Z" fill="#2B2B2B" fill-opacity="0.49"/>
<path d="M196.282 185.667L203.443 189.896L186.907 219.191L179.746 214.963L196.282 185.667Z" fill="#2B2B2B" fill-opacity="0.49"/>
<path d="M188.112 214.916H177.776C175.95 214.916 174.469 216.43 174.469 218.298V220.944C174.469 222.812 175.95 224.326 177.776 224.326H188.112C189.939 224.326 191.419 222.812 191.419 220.944V218.298C191.419 216.43 189.939 214.916 188.112 214.916Z" fill="#2B2B2B" fill-opacity="0.49"/>
<path d="M182.944 251.191C192.077 251.191 199.481 243.618 199.481 234.277C199.481 224.936 192.077 217.364 182.944 217.364C173.812 217.364 166.408 224.936 166.408 234.277C166.408 243.618 173.812 251.191 182.944 251.191Z" fill="#2B2B2B" fill-opacity="0.49"/>
<path d="M182.944 247.131C189.885 247.131 195.511 241.376 195.511 234.277C195.511 227.178 189.885 221.423 182.944 221.423C176.003 221.423 170.377 227.178 170.377 234.277C170.377 241.376 176.003 247.131 182.944 247.131Z" fill="#2B2B2B" fill-opacity="0.49"/>
</g>
</g>
<mask id="mask1_538_366" style="mask-type:luminance" maskUnits="userSpaceOnUse" x="153" y="172" width="51" height="80">
<path d="M203.456 172.352H153.863V251.292H203.456V172.352Z" fill="white"/>
</mask>
<g mask="url(#mask1_538_366)">
<path d="M162.522 172.352L153.863 177.438L173.861 212.678L182.519 207.591L162.522 172.352Z" fill="url(#paint1_linear_538_366)"/>
<path d="M194.781 172.352L203.44 177.438L183.443 212.678L174.784 207.591L194.781 172.352Z" fill="url(#paint2_linear_538_366)"/>
<path d="M184.902 207.535H172.402C170.193 207.535 168.402 209.356 168.402 211.604V214.786C168.402 217.033 170.193 218.855 172.402 218.855H184.902C187.11 218.855 188.901 217.033 188.901 214.786V211.604C188.901 209.356 187.11 207.535 184.902 207.535Z" fill="#654A0D"/>
<path d="M178.651 251.17C189.696 251.17 198.648 242.061 198.648 230.825C198.648 219.588 189.696 210.479 178.651 210.479C167.607 210.479 158.654 219.588 158.654 230.825C158.654 242.061 167.607 251.17 178.651 251.17Z" fill="url(#paint3_radial_538_366)"/>
<path d="M178.651 246.287C187.045 246.287 193.85 239.365 193.85 230.825C193.85 222.285 187.045 215.362 178.651 215.362C170.258 215.362 163.454 222.285 163.454 230.825C163.454 239.365 170.258 246.287 178.651 246.287Z" fill="url(#paint4_radial_538_366)"/>
</g>
<g filter="url(#filter4_g_538_366)">
<path d="M154.432 262.676H205.52" stroke="#252525" stroke-width="5" stroke-linecap="round"/>
</g>
<g filter="url(#filter5_g_538_366)">
<path d="M150.542 308.151H169.025" stroke="#252525" stroke-width="5" stroke-linecap="round"/>
</g>
<g filter="url(#filter6_g_538_366)">
<path d="M177.153 308.151H209.409" stroke="#252525" stroke-width="5" stroke-linecap="round"/>
</g>
<g filter="url(#filter7_g_538_366)">
<path d="M137.725 276.545H219.593" stroke="#252525" stroke-width="5" stroke-linecap="round"/>
</g>
<g filter="url(#filter8_gn_538_366)">
<path d="M279.507 165.807H77.8115V336.777H279.507V165.807Z" fill="#FFDF99" fill-opacity="0.2"/>
</g>
</g>
</g>
<defs>
<filter id="filter0_d_538_366" x="0" y="0" width="358" height="358" filterUnits="userSpaceOnUse" color-interpolation-filters="sRGB">
<feFlood flood-opacity="0" result="BackgroundImageFix"/>
<feColorMatrix in="SourceAlpha" type="matrix" values="0 0 0 0 0 0 0 0 0 0 0 0 0 0 0 0 0 0 127 0" result="hardAlpha"/>
<feOffset dy="4"/>
<feGaussianBlur stdDeviation="2"/>
<feComposite in2="hardAlpha" operator="out"/>
<feColorMatrix type="matrix" values="0 0 0 0 0 0 0 0 0 0 0 0 0 0 0 0 0 0 0.25 0"/>
<feBlend mode="normal" in2="BackgroundImageFix" result="effect1_dropShadow_538_366"/>
<feBlend mode="normal" in="SourceGraphic" in2="effect1_dropShadow_538_366" result="shape"/>
</filter>
<filter id="filter1_g_538_366" x="75.9115" y="163.907" width="205.495" height="174.77" filterUnits="userSpaceOnUse" color-interpolation-filters="sRGB">
<feFlood flood-opacity="0" result="BackgroundImageFix"/>
<feBlend mode="normal" in="SourceGraphic" in2="BackgroundImageFix" result="shape"/>
<feTurbulence type="fractalNoise" baseFrequency="0.38461539149284363 0.38461539149284363" numOctaves="3" seed="2226" />
<feDisplacementMap in="shape" scale="3.7999999523162842" xChannelSelector="R" yChannelSelector="G" result="displacedImage" width="100%" height="100%" />
<feMerge result="effect1_texture_538_366">
<feMergeNode in="displacedImage"/>
</feMerge>
</filter>
<filter id="filter2_g_538_366" x="81.3891" y="168.55" width="194.541" height="165.485" filterUnits="userSpaceOnUse" color-interpolation-filters="sRGB">
<feFlood flood-opacity="0" result="BackgroundImageFix"/>
<feBlend mode="normal" in="SourceGraphic" in2="BackgroundImageFix" result="shape"/>
<feTurbulence type="fractalNoise" baseFrequency="0.38461539149284363 0.38461539149284363" numOctaves="3" seed="2226" />
<feDisplacementMap in="shape" scale="3.7999999523162842" xChannelSelector="R" yChannelSelector="G" result="displacedImage" width="100%" height="100%" />
<feMerge result="effect1_texture_538_366">
<feMergeNode in="displacedImage"/>
</feMerge>
</filter>
<filter id="filter3_f_538_366" x="153.046" y="176.267" width="59.7961" height="84.3237" filterUnits="userSpaceOnUse" color-interpolation-filters="sRGB">
<feFlood flood-opacity="0" result="BackgroundImageFix"/>
<feBlend mode="normal" in="SourceGraphic" in2="BackgroundImageFix" result="shape"/>
<feGaussianBlur stdDeviation="4.7" result="effect1_foregroundBlur_538_366"/>
</filter>
<filter id="filter4_g_538_366" x="151.132" y="259.376" width="57.6889" height="6.6" filterUnits="userSpaceOnUse" color-interpolation-filters="sRGB">
<feFlood flood-opacity="0" result="BackgroundImageFix"/>
<feBlend mode="normal" in="SourceGraphic" in2="BackgroundImageFix" result="shape"/>
<feTurbulence type="fractalNoise" baseFrequency="0.52631580829620361 0.52631580829620361" numOctaves="3" seed="1621" />
<feDisplacementMap in="shape" scale="1.6000000238418579" xChannelSelector="R" yChannelSelector="G" result="displacedImage" width="100%" height="100%" />
<feMerge result="effect1_texture_538_366">
<feMergeNode in="displacedImage"/>
</feMerge>
</filter>
<filter id="filter5_g_538_366" x="147.242" y="304.851" width="25.0834" height="6.6" filterUnits="userSpaceOnUse" color-interpolation-filters="sRGB">
<feFlood flood-opacity="0" result="BackgroundImageFix"/>
<feBlend mode="normal" in="SourceGraphic" in2="BackgroundImageFix" result="shape"/>
<feTurbulence type="fractalNoise" baseFrequency="0.52631580829620361 0.52631580829620361" numOctaves="3" seed="1621" />
<feDisplacementMap in="shape" scale="1.6000000238418579" xChannelSelector="R" yChannelSelector="G" result="displacedImage" width="100%" height="100%" />
<feMerge result="effect1_texture_538_366">
<feMergeNode in="displacedImage"/>
</feMerge>
</filter>
<filter id="filter6_g_538_366" x="173.853" y="304.851" width="38.8559" height="6.6" filterUnits="userSpaceOnUse" color-interpolation-filters="sRGB">
<feFlood flood-opacity="0" result="BackgroundImageFix"/>
<feBlend mode="normal" in="SourceGraphic" in2="BackgroundImageFix" result="shape"/>
<feTurbulence type="fractalNoise" baseFrequency="0.52631580829620361 0.52631580829620361" numOctaves="3" seed="1621" />
<feDisplacementMap in="shape" scale="1.6000000238418579" xChannelSelector="R" yChannelSelector="G" result="displacedImage" width="100%" height="100%" />
<feMerge result="effect1_texture_538_366">
<feMergeNode in="displacedImage"/>
</feMerge>
</filter>
<filter id="filter7_g_538_366" x="134.425" y="273.245" width="88.4682" height="6.6" filterUnits="userSpaceOnUse" color-interpolation-filters="sRGB">
<feFlood flood-opacity="0" result="BackgroundImageFix"/>
<feBlend mode="normal" in="SourceGraphic" in2="BackgroundImageFix" result="shape"/>
<feTurbulence type="fractalNoise" baseFrequency="0.52631580829620361 0.52631580829620361" numOctaves="3" seed="1621" />
<feDisplacementMap in="shape" scale="1.6000000238418579" xChannelSelector="R" yChannelSelector="G" result="displacedImage" width="100%" height="100%" />
<feMerge result="effect1_texture_538_366">
<feMergeNode in="displacedImage"/>
</feMerge>
</filter>
<filter id="filter8_gn_538_366" x="75.9115" y="163.907" width="205.495" height="174.77" filterUnits="userSpaceOnUse" color-interpolation-filters="sRGB">
<feFlood flood-opacity="0" result="BackgroundImageFix"/>
<feBlend mode="normal" in="SourceGraphic" in2="BackgroundImageFix" result="shape"/>
<feTurbulence type="fractalNoise" baseFrequency="0.38461539149284363 0.38461539149284363" numOctaves="3" seed="2226" />
<feDisplacementMap in="shape" scale="3.7999999523162842" xChannelSelector="R" yChannelSelector="G" result="displacedImage" width="100%" height="100%" />
<feMerge result="effect1_texture_538_366">
<feMergeNode in="displacedImage"/>
</feMerge>
<feTurbulence type="fractalNoise" baseFrequency="10 10" stitchTiles="stitch" numOctaves="3" result="noise" seed="5117" />
<feColorMatrix in="noise" type="luminanceToAlpha" result="alphaNoise" />
<feComponentTransfer in="alphaNoise" result="coloredNoise1">
<feFuncA type="discrete" tableValues="0 0 0 0 0 0 1 1 1 1 1 1 1 1 1 1 1 1 1 1 1 1 1 1 1 1 1 1 1 1 1 1 1 1 1 1 1 1 1 1 1 1 1 0 0 0 0 0 0 0 0 0 0 0 0 0 0 0 0 0 0 0 0 0 0 0 0 0 0 0 0 0 0 0 0 0 0 0 0 0 0 0 0 0 0 0 0 0 0 0 0 0 0 0 0 0 0 0 0 0 "/>
</feComponentTransfer>
<feComposite operator="in" in2="effect1_texture_538_366" in="coloredNoise1" result="noise1Clipped" />
<feFlood flood-color="#4A3A25" result="color1Flood" />
<feComposite operator="in" in2="noise1Clipped" in="color1Flood" result="color1" />
<feMerge result="effect2_noise_538_366">
<feMergeNode in="effect1_texture_538_366" />
<feMergeNode in="color1" />
</feMerge>
</filter>
<linearGradient id="paint0_linear_538_366" x1="83.2891" y1="170.45" x2="273.59" y2="332.65" gradientUnits="userSpaceOnUse">
<stop stop-color="#ECF6E1"/>
<stop offset="1" stop-color="#FFBD7C"/>
</linearGradient>
<linearGradient id="paint1_linear_538_366" x1="158.193" y1="174.895" x2="178.712" y2="209.828" gradientUnits="userSpaceOnUse">
<stop stop-color="white" stop-opacity="0"/>
<stop offset="1" stop-color="#20859C"/>
</linearGradient>
<linearGradient id="paint2_linear_538_366" x1="199.11" y1="174.895" x2="178.591" y2="209.828" gradientUnits="userSpaceOnUse">
<stop stop-color="white" stop-opacity="0"/>
<stop offset="1" stop-color="#96BAFF"/>
</linearGradient>
<radialGradient id="paint3_radial_538_366" cx="0" cy="0" r="1" gradientUnits="userSpaceOnUse" gradientTransform="translate(198.648 230.825) rotate(180) scale(39.994 40.6908)">
<stop stop-color="#C9980B"/>
<stop offset="1" stop-color="#76520F"/>
</radialGradient>
<radialGradient id="paint4_radial_538_366" cx="0" cy="0" r="1" gradientUnits="userSpaceOnUse" gradientTransform="translate(191.309 230.825) rotate(180) scale(27.8544 28.3397)">
<stop stop-color="#FFE169"/>
<stop offset="1" stop-color="#FFC300"/>
</radialGradient>
<clipPath id="clip0_538_366">
<rect width="206" height="175" fill="white" transform="translate(76 164)"/>
</clipPath>
</defs>
</svg>
