<svg width="400" height="400" viewBox="0 0 400 400" fill="none" xmlns="http://www.w3.org/2000/svg">
<rect width="400" height="400" fill="#FAF2EB"/>
<path d="M333.542 117.041C334.508 114.43 338.203 114.43 339.169 117.041L343.979 130.041C344.283 130.863 344.931 131.51 345.752 131.814L358.752 136.624C361.364 137.591 361.364 141.285 358.752 142.251L345.752 147.062C344.931 147.366 344.283 148.013 343.979 148.834L339.169 161.834C338.203 164.446 334.508 164.446 333.542 161.834L328.731 148.834C328.428 148.013 327.78 147.366 326.959 147.062L313.959 142.251C311.347 141.285 311.347 137.591 313.959 136.624L326.959 131.814C327.78 131.51 328.428 130.863 328.731 130.041L333.542 117.041Z" fill="#33B1FF"/>
<path d="M370.684 93.1065C371.651 90.4947 375.345 90.4947 376.312 93.1065L378.421 98.8075C378.725 99.6286 379.372 100.276 380.194 100.58L385.895 102.689C388.506 103.656 388.506 107.35 385.895 108.317L380.194 110.426C379.372 110.73 378.725 111.377 378.421 112.199L376.312 117.899C375.345 120.511 371.651 120.511 370.684 117.899L368.575 112.199C368.271 111.377 367.624 110.73 366.803 110.426L361.102 108.317C358.49 107.35 358.49 103.656 361.102 102.689L366.803 100.58C367.624 100.276 368.271 99.6286 368.575 98.8075L370.684 93.1065Z" fill="#FF8080"/>
<path d="M37.546 306.468C36.5795 309.08 32.8853 309.08 31.9189 306.468L30.4846 302.592C30.1807 301.771 29.5333 301.123 28.7121 300.82L24.8359 299.385C22.2241 298.419 22.2241 294.725 24.8359 293.758L28.7121 292.324C29.5333 292.02 30.1807 291.373 30.4846 290.551L31.9189 286.675C32.8853 284.063 36.5795 284.063 37.546 286.675L38.9803 290.551C39.2841 291.373 39.9316 292.02 40.7527 292.324L44.6289 293.758C47.2408 294.725 47.2408 298.419 44.6289 299.385L40.7527 300.82C39.9316 301.123 39.2841 301.771 38.9803 302.592L37.546 306.468Z" fill="#97FF8A"/>
<path d="M273.542 220.952C274.508 218.34 278.203 218.34 279.169 220.952L283.979 233.952C284.283 234.773 284.931 235.42 285.752 235.724L298.752 240.535C301.364 241.501 301.364 245.195 298.752 246.162L285.752 250.972C284.931 251.276 284.283 251.923 283.979 252.745L279.169 265.745C278.203 268.356 274.508 268.356 273.542 265.745L268.731 252.745C268.428 251.923 267.78 251.276 266.959 250.972L253.959 246.162C251.347 245.195 251.347 241.501 253.959 240.535L266.959 235.724C267.78 235.42 268.428 234.773 268.731 233.952L273.542 220.952Z" fill="#33B1FF"/>
<path d="M310.684 197.017C311.651 194.405 315.345 194.405 316.312 197.017L318.421 202.718C318.725 203.539 319.372 204.186 320.194 204.49L325.895 206.6C328.506 207.566 328.506 211.26 325.895 212.227L320.194 214.336C319.372 214.64 318.725 215.288 318.421 216.109L316.312 221.81C315.345 224.422 311.651 224.422 310.684 221.81L308.575 216.109C308.271 215.288 307.624 214.64 306.803 214.336L301.102 212.227C298.49 211.26 298.49 207.566 301.102 206.6L306.803 204.49C307.624 204.186 308.271 203.539 308.575 202.718L310.684 197.017Z" fill="#FF8080"/>
<path d="M97.546 202.558C96.5795 205.17 92.8853 205.17 91.9189 202.558L90.4846 198.682C90.1807 197.861 89.5333 197.213 88.7121 196.909L84.8359 195.475C82.2241 194.509 82.2241 190.814 84.8359 189.848L88.7121 188.414C89.5333 188.11 90.1807 187.462 90.4846 186.641L91.9189 182.765C92.8853 180.153 96.5795 180.153 97.546 182.765L98.9803 186.641C99.2841 187.462 99.9316 188.11 100.753 188.414L104.629 189.848C107.241 190.814 107.241 194.509 104.629 195.475L100.753 196.909C99.9316 197.213 99.2841 197.861 98.9803 198.682L97.546 202.558Z" fill="#97FF8A"/>
<path d="M148.483 329.068C149.45 326.456 153.144 326.456 154.11 329.068L158.921 342.068C159.225 342.889 159.872 343.537 160.693 343.84L173.693 348.651C176.305 349.617 176.305 353.312 173.693 354.278L160.693 359.088C159.872 359.392 159.225 360.04 158.921 360.861L154.11 373.861C153.144 376.473 149.45 376.473 148.483 373.861L143.673 360.861C143.369 360.04 142.722 359.392 141.9 359.088L128.9 354.278C126.289 353.312 126.289 349.617 128.9 348.651L141.9 343.84C142.722 343.537 143.369 342.889 143.673 342.068L148.483 329.068Z" fill="#33B1FF"/>
<path d="M185.626 305.133C186.592 302.521 190.287 302.521 191.253 305.133L193.363 310.834C193.666 311.655 194.314 312.303 195.135 312.606L200.836 314.716C203.448 315.682 203.448 319.377 200.836 320.343L195.135 322.453C194.314 322.757 193.666 323.404 193.363 324.225L191.253 329.926C190.287 332.538 186.592 332.538 185.626 329.926L183.516 324.225C183.213 323.404 182.565 322.757 181.744 322.453L176.043 320.343C173.431 319.377 173.431 315.682 176.043 314.716L181.744 312.606C182.565 312.303 183.213 311.655 183.516 310.834L185.626 305.133Z" fill="#FF8080"/>
<path d="M222.605 94.4408C221.638 97.0527 217.944 97.0527 216.977 94.4408L215.543 90.5646C215.239 89.7435 214.592 89.096 213.771 88.7922L209.895 87.3579C207.283 86.3914 207.283 82.6972 209.895 81.7308L213.771 80.2965C214.592 79.9926 215.239 79.3452 215.543 78.524L216.977 74.6478C217.944 72.036 221.638 72.036 222.605 74.6478L224.039 78.524C224.343 79.3452 224.99 79.9926 225.811 80.2965L229.688 81.7308C232.299 82.6972 232.299 86.3914 229.687 87.3579L225.811 88.7922C224.99 89.096 224.343 89.7435 224.039 90.5646L222.605 94.4408Z" fill="#97FF8A"/>
<path d="M328.849 315.133C329.815 312.521 333.509 312.521 334.476 315.133L339.286 328.133C339.59 328.954 340.237 329.602 341.059 329.906L354.059 334.716C356.67 335.683 356.67 339.377 354.059 340.343L341.059 345.154C340.237 345.457 339.59 346.105 339.286 346.926L334.476 359.926C333.509 362.538 329.815 362.538 328.849 359.926L324.038 346.926C323.734 346.105 323.087 345.457 322.266 345.154L309.266 340.343C306.654 339.377 306.654 335.683 309.266 334.716L322.266 329.906C323.087 329.602 323.734 328.954 324.038 328.133L328.849 315.133Z" fill="#33B1FF"/>
<path d="M365.991 291.198C366.958 288.586 370.652 288.586 371.618 291.198L373.728 296.899C374.032 297.72 374.679 298.368 375.5 298.672L381.201 300.781C383.813 301.748 383.813 305.442 381.201 306.408L375.5 308.518C374.679 308.822 374.032 309.469 373.728 310.29L371.618 315.991C370.652 318.603 366.958 318.603 365.991 315.991L363.882 310.29C363.578 309.469 362.93 308.822 362.109 308.518L356.408 306.408C353.796 305.442 353.796 301.748 356.408 300.781L362.109 298.672C362.93 298.368 363.578 297.72 363.882 296.899L365.991 291.198Z" fill="#FF8080"/>
<path d="M42.2393 108.376C41.2729 110.988 37.5787 110.988 36.6122 108.376L35.1779 104.5C34.8741 103.679 34.2266 103.032 33.4055 102.728L29.5293 101.293C26.9174 100.327 26.9174 96.6328 29.5293 95.6663L33.4055 94.232C34.2266 93.9281 34.8741 93.2807 35.1779 92.4596L36.6122 88.5834C37.5787 85.9715 41.2729 85.9715 42.2393 88.5834L43.6736 92.4596C43.9775 93.2807 44.6249 93.9281 45.4461 94.232L49.3223 95.6663C51.9341 96.6328 51.9341 100.327 49.3223 101.293L45.4461 102.728C44.6249 103.032 43.9775 103.679 43.6736 104.5L42.2393 108.376Z" fill="#97FF8A"/>
<path d="M170.915 177.041C171.881 174.43 175.576 174.43 176.542 177.041L181.353 190.041C181.656 190.863 182.304 191.51 183.125 191.814L196.125 196.624C198.737 197.591 198.737 201.285 196.125 202.251L183.125 207.062C182.304 207.366 181.656 208.013 181.353 208.834L176.542 221.834C175.576 224.446 171.881 224.446 170.915 221.834L166.105 208.834C165.801 208.013 165.153 207.366 164.332 207.062L151.332 202.251C148.72 201.285 148.72 197.591 151.332 196.624L164.332 191.814C165.153 191.51 165.801 190.863 166.105 190.041L170.915 177.041Z" fill="#33B1FF"/>
<path d="M208.058 153.107C209.024 150.495 212.718 150.495 213.685 153.107L215.794 158.807C216.098 159.629 216.745 160.276 217.567 160.58L223.268 162.689C225.879 163.656 225.879 167.35 223.268 168.317L217.567 170.426C216.745 170.73 216.098 171.377 215.794 172.199L213.685 177.899C212.718 180.511 209.024 180.511 208.058 177.899L205.948 172.199C205.644 171.377 204.997 170.73 204.176 170.426L198.475 168.317C195.863 167.35 195.863 163.656 198.475 162.689L204.176 160.58C204.997 160.276 205.644 159.629 205.948 158.807L208.058 153.107Z" fill="#FF8080"/>
<path d="M200.173 246.468C199.206 249.08 195.512 249.08 194.546 246.468L193.112 242.592C192.808 241.771 192.16 241.123 191.339 240.82L187.463 239.385C184.851 238.419 184.851 234.725 187.463 233.758L191.339 232.324C192.16 232.02 192.808 231.373 193.112 230.551L194.546 226.675C195.512 224.063 199.206 224.063 200.173 226.675L201.607 230.551C201.911 231.373 202.559 232.02 203.38 232.324L207.256 233.758C209.868 234.725 209.868 238.419 207.256 239.385L203.38 240.82C202.559 241.123 201.911 241.771 201.607 242.592L200.173 246.468Z" fill="#97FF8A"/>
<path d="M246.61 52.0562C247.577 49.4444 251.271 49.4444 252.237 52.0562L257.048 65.0563C257.352 65.8774 257.999 66.5249 258.82 66.8287L271.82 71.6392C274.432 72.6056 274.432 76.2998 271.82 77.2663L258.82 82.0767C257.999 82.3806 257.352 83.028 257.048 83.8492L252.237 96.8492C251.271 99.461 247.577 99.461 246.61 96.8492L241.8 83.8492C241.496 83.028 240.849 82.3806 240.027 82.0767L227.027 77.2663C224.415 76.2998 224.415 72.6056 227.027 71.6392L240.027 66.8287C240.849 66.5249 241.496 65.8774 241.8 65.0563L246.61 52.0562Z" fill="#33B1FF"/>
<path d="M283.753 28.1213C284.719 25.5095 288.413 25.5095 289.38 28.1213L291.49 33.8223C291.793 34.6434 292.441 35.2909 293.262 35.5947L298.963 37.7043C301.575 38.6707 301.575 42.3649 298.963 43.3314L293.262 45.4409C292.441 45.7448 291.793 46.3922 291.49 47.2134L289.38 52.9143C288.413 55.5262 284.719 55.5262 283.753 52.9143L281.643 47.2134C281.339 46.3922 280.692 45.7448 279.871 45.4409L274.17 43.3314C271.558 42.3649 271.558 38.6707 274.17 37.7043L279.871 35.5947C280.692 35.2909 281.339 34.6434 281.643 33.8223L283.753 28.1213Z" fill="#FF8080"/>
<path d="M124.478 371.453C123.511 374.064 119.817 374.064 118.851 371.453L117.416 367.576C117.112 366.755 116.465 366.108 115.644 365.804L111.768 364.37C109.156 363.403 109.156 359.709 111.768 358.742L115.644 357.308C116.465 357.004 117.112 356.357 117.416 355.536L118.851 351.66C119.817 349.048 123.511 349.048 124.478 351.66L125.912 355.536C126.216 356.357 126.863 357.004 127.684 357.308L131.561 358.742C134.172 359.709 134.172 363.403 131.561 364.37L127.684 365.804C126.863 366.108 126.216 366.755 125.912 367.576L124.478 371.453Z" fill="#97FF8A"/>
<path d="M95.8075 52.0562C96.774 49.4444 100.468 49.4444 101.435 52.0562L106.245 65.0563C106.549 65.8774 107.196 66.5249 108.018 66.8287L121.018 71.6392C123.629 72.6056 123.629 76.2998 121.018 77.2663L108.018 82.0767C107.196 82.3806 106.549 83.028 106.245 83.8492L101.435 96.8492C100.468 99.461 96.774 99.461 95.8075 96.8492L90.9971 83.8492C90.6932 83.028 90.0458 82.3806 89.2246 82.0767L76.2246 77.2663C73.6128 76.2998 73.6128 72.6056 76.2246 71.6392L89.2246 66.8287C90.0458 66.5249 90.6932 65.8774 90.9971 65.0563L95.8075 52.0562Z" fill="#33B1FF"/>
<path d="M132.95 28.1213C133.917 25.5095 137.611 25.5095 138.577 28.1213L140.687 33.8223C140.991 34.6434 141.638 35.2909 142.459 35.5947L148.16 37.7043C150.772 38.6707 150.772 42.3649 148.16 43.3314L142.459 45.4409C141.638 45.7448 140.991 46.3922 140.687 47.2134L138.577 52.9143C137.611 55.5262 133.917 55.5262 132.95 52.9143L130.841 47.2134C130.537 46.3922 129.889 45.7448 129.068 45.4409L123.367 43.3314C120.755 42.3649 120.755 38.6707 123.367 37.7043L129.068 35.5947C129.889 35.2909 130.537 34.6434 130.841 33.8223L132.95 28.1213Z" fill="#FF8080"/>
<path d="M275.28 371.453C274.314 374.064 270.62 374.064 269.653 371.453L268.219 367.576C267.915 366.755 267.268 366.108 266.446 365.804L262.57 364.37C259.958 363.403 259.958 359.709 262.57 358.742L266.446 357.308C267.268 357.004 267.915 356.357 268.219 355.536L269.653 351.66C270.62 349.048 274.314 349.048 275.28 351.66L276.715 355.536C277.019 356.357 277.666 357.004 278.487 357.308L282.363 358.742C284.975 359.709 284.975 363.403 282.363 364.37L278.487 365.804C277.666 366.108 277.019 366.755 276.715 367.576L275.28 371.453Z" fill="#97FF8A"/>
<path d="M65.8075 285.133C66.774 282.521 70.4682 282.521 71.4346 285.133L76.2451 298.133C76.549 298.954 77.1964 299.602 78.0175 299.906L91.0176 304.716C93.6294 305.683 93.6294 309.377 91.0176 310.343L78.0175 315.154C77.1964 315.457 76.549 316.105 76.2451 316.926L71.4346 329.926C70.4682 332.538 66.774 332.538 65.8075 329.926L60.9971 316.926C60.6932 316.105 60.0458 315.457 59.2246 315.154L46.2246 310.343C43.6128 309.377 43.6128 305.683 46.2246 304.716L59.2246 299.906C60.0458 299.602 60.6932 298.954 60.9971 298.133L65.8075 285.133Z" fill="#33B1FF"/>
<path d="M102.95 261.198C103.917 258.586 107.611 258.586 108.577 261.198L110.687 266.899C110.991 267.72 111.638 268.368 112.459 268.672L118.16 270.781C120.772 271.748 120.772 275.442 118.16 276.408L112.459 278.518C111.638 278.822 110.991 279.469 110.687 280.29L108.577 285.991C107.611 288.603 103.917 288.603 102.95 285.991L100.841 280.29C100.537 279.469 99.8893 278.822 99.0681 278.518L93.3672 276.408C90.7553 275.442 90.7553 271.748 93.3672 270.781L99.0681 268.672C99.8893 268.368 100.537 267.72 100.841 266.899L102.95 261.198Z" fill="#FF8080"/>
<path d="M305.28 138.376C304.314 140.988 300.62 140.988 299.653 138.376L298.219 134.5C297.915 133.679 297.268 133.032 296.446 132.728L292.57 131.293C289.958 130.327 289.958 126.633 292.57 125.666L296.446 124.232C297.268 123.928 297.915 123.281 298.219 122.46L299.653 118.583C300.62 115.972 304.314 115.972 305.28 118.583L306.715 122.46C307.019 123.281 307.666 123.928 308.487 124.232L312.363 125.666C314.975 126.633 314.975 130.327 312.363 131.293L308.487 132.728C307.666 133.032 307.019 133.679 306.715 134.5L305.28 138.376Z" fill="#97FF8A"/>
<path d="M55.5497 177.041C56.5162 174.43 60.2104 174.43 61.1768 177.041L65.9873 190.041C66.2911 190.863 66.9386 191.51 67.7597 191.814L80.7598 196.624C83.3716 197.591 83.3716 201.285 80.7598 202.251L67.7597 207.062C66.9386 207.366 66.2911 208.013 65.9873 208.834L61.1768 221.834C60.2104 224.446 56.5162 224.446 55.5497 221.834L50.7393 208.834C50.4354 208.013 49.788 207.366 48.9668 207.062L35.9668 202.251C33.3549 201.285 33.3549 197.591 35.9668 196.624L48.9668 191.814C49.788 191.51 50.4354 190.863 50.7393 190.041L55.5497 177.041Z" fill="#33B1FF"/>
<path d="M92.6923 153.107C93.6588 150.495 97.3529 150.495 98.3194 153.107L100.429 158.807C100.733 159.629 101.38 160.276 102.201 160.58L107.902 162.689C110.514 163.656 110.514 167.35 107.902 168.317L102.201 170.426C101.38 170.73 100.733 171.377 100.429 172.199L98.3194 177.899C97.3529 180.511 93.6588 180.511 92.6923 177.899L90.5828 172.199C90.2789 171.377 89.6315 170.73 88.8103 170.426L83.1094 168.317C80.4975 167.35 80.4975 163.656 83.1094 162.689L88.8103 160.58C89.6315 160.276 90.2789 159.629 90.5828 158.807L92.6923 153.107Z" fill="#FF8080"/>
<path d="M315.538 246.468C314.572 249.08 310.878 249.08 309.911 246.468L308.477 242.592C308.173 241.771 307.525 241.123 306.704 240.82L302.828 239.385C300.216 238.419 300.216 234.725 302.828 233.758L306.704 232.324C307.525 232.02 308.173 231.373 308.477 230.551L309.911 226.675C310.878 224.063 314.572 224.063 315.538 226.675L316.972 230.551C317.276 231.373 317.924 232.02 318.745 232.324L322.621 233.758C325.233 234.725 325.233 238.419 322.621 239.385L318.745 240.82C317.924 241.123 317.276 241.771 316.972 242.592L315.538 246.468Z" fill="#97FF8A"/>
</svg>
